<svg xmlns="http://www.w3.org/2000/svg" width="20" height="20" viewBox="0 0 20 20">
    <g fill="#06B3BA" fill-rule="nonzero">
        <path d="M14 9H6a1 1 0 1 0 0 2h8a1 1 0 0 0 0-2z"/>
        <path d="M2 4.995v10.01A2.997 2.997 0 0 0 4.995 18h10.01A2.997 2.997 0 0 0 18 15.005V4.995A2.997 2.997 0 0 0 15.005 2H4.995A2.997 2.997 0 0 0 2 4.995zm-1 0A3.997 3.997 0 0 1 4.995 1h10.01A3.997 3.997 0 0 1 19 4.995v10.01A3.997 3.997 0 0 1 15.005 19H4.995A3.997 3.997 0 0 1 1 15.005V4.995z"/>
    </g>
</svg>
